<svg width="1728" height="602" viewBox="0 0 1728 602" fill="none" xmlns="http://www.w3.org/2000/svg">
<g filter="url(#filter0_d_1_96)">
<path d="M1739.94 49.819C1717 28.3969 1704.77 46.1702 1706.28 50.1722C1709.31 57.3521 1683.97 35.6945 1681.83 37.107C1687.63 22.5116 1652.59 43.3453 1654.6 25.2188C1648.05 29.8093 1637.84 19.3336 1625.23 21.9231C1606.07 21.6877 1626.37 27.2198 1596.74 17.9212C1580.99 20.2753 1594.6 17.215 1565.48 14.0369C1559.3 17.215 1547.33 16.5087 1541.28 16.8618C1542.04 18.0389 1522.87 27.4552 1507.5 25.3365C1511.28 34.2821 1503.71 35.3414 1478.5 29.8093C1453.17 47.5827 1475.98 25.6897 1448.75 30.6332C1429.97 46.4056 1432.24 38.7548 1418.63 32.3988C1396.57 33.929 1372.24 42.9922 1369.47 45.464C1372.37 44.9932 1375.64 44.5223 1379.55 43.8161C1370.98 46.2879 1368.21 46.5233 1369.47 45.464C1359.63 47.1118 1354.34 48.8774 1342.99 60.5301C1339.84 73.0068 1321.57 64.179 1303.04 72.0652C1290.05 78.5389 1266.35 86.3074 1271.14 73.0068C1287.15 56.8813 1221.35 39.9319 1238.5 69.7111C1204.21 58.6469 1220.34 59.8239 1207.36 64.7675C1155.17 75.4786 1185.8 52.7616 1169.92 53.3502C1103.62 45.3463 1182.65 53.7033 1138.28 37.8132C1131.1 70.1819 1109.92 22.1585 1104.37 24.9834C1095.8 15.8025 1073.24 30.7509 1060.13 20.7461C1042.73 24.5126 1014.24 13.6838 1012.48 25.572C967.1 24.8657 977.31 28.6323 965.839 35.4591C949.704 44.7578 925.376 47.7004 924.494 46.5233C918.821 49.1128 894.745 38.8725 893.106 56.6459C883.904 55.9397 871.803 64.6498 862.601 65.356C846.718 74.5369 853.903 59.7062 827.179 68.534C819.364 54.2918 768.942 56.4105 787.85 64.6498C767.304 65.0029 748.269 60.4124 757.471 56.0574C745.244 58.6469 731.756 45.2286 728.353 36.0476C722.302 18.7451 712.47 25.8074 700.116 26.2782C685.116 18.0389 685.242 28.75 671.25 18.1566C652.09 10.7412 642.131 8.74024 631.921 9.56417C622.341 11.4474 619.693 18.0389 591.205 17.9212C572.549 38.5194 581.625 33.4581 555.91 18.8628C517.967 5.67993 531.203 21.9231 520.993 13.6838C500.068 15.4494 511.539 -0.911511 487.084 10.9766C476.621 -0.676102 461.117 22.3939 444.099 16.8618C430.99 -12.2111 424.813 17.5681 397.963 28.0437C364.811 19.3336 353.718 26.2782 356.87 39.3434C366.198 41.9328 334.81 39.8142 317.541 52.5262C283.884 44.0515 313.003 55.3511 278.085 68.2986C261.068 76.5379 249.345 69.0048 238.378 83.3648C211.15 87.9552 207.117 100.314 198.041 94.1936C182.41 106.199 166.149 103.728 156.821 97.3716C124.173 67.5924 105.391 93.3696 108.92 92.0749C96.9449 97.7247 86.9866 90.8978 63.2884 82.7762C61.6496 57.7052 27.1107 79.2451 18.1608 73.4776C-5.91563 73.9484 -8.94094 72.7714 -16 70.7704V569.954C-11.7141 569.484 -7.17618 569.013 -2.00794 568.66C-3.52059 567.129 35.9345 576.899 27.6149 579.724C47.2794 575.722 50.809 587.963 54.7166 589.611C62.406 597.85 89.2556 582.666 90.5162 594.201C81.1881 601.617 122.66 604.442 124.551 595.261C134.005 583.961 153.922 596.673 157.073 590.788C176.233 590.317 166.779 588.316 169.426 580.195C187.326 571.249 157.829 560.185 182.284 568.895C186.948 554.3 228.924 553.829 220.731 560.891C240.521 564.54 250.732 559.008 261.698 563.951C258.421 569.248 306.322 559.596 303.927 569.484C323.339 561.715 339.474 565.482 346.407 568.895C374.643 577.958 371.114 544.059 387.123 562.186C403.132 560.891 398.215 557.713 427.964 555.241C445.486 567.365 441.704 547.355 468.68 548.768C479.773 553.476 483.05 534.761 509.27 543.589C528.808 542.176 540.153 539.351 546.96 546.178C558.305 546.531 573.431 555.359 577.969 558.419C567.003 563.127 598.138 558.184 610.365 573.015C617.929 586.786 644.148 595.025 642.761 579.724C663.687 577.84 656.753 601.852 670.746 576.781C681.964 554.653 665.829 568.306 703.646 572.544C699.738 559.008 739.067 549.356 739.823 577.017C737.807 585.609 750.916 588.905 771.841 588.787C778.901 590.435 777.514 600.793 804.364 597.968C821.381 592.907 832.222 596.555 847.6 599.616C854.533 603.382 896.635 597.85 892.728 597.615C881.131 570.19 936.217 595.849 928.401 591.141C939.242 583.02 1000.63 572.073 963.57 577.841C957.772 559.126 983.613 569.719 998.614 562.774C1024.45 582.549 988.529 545.236 1034.03 551.004C1037.06 543.471 1060.25 547.708 1068.83 546.531C1087.99 536.173 1077.4 563.363 1104.88 544.766C1113.83 554.064 1133.37 527.345 1140.17 539.469C1167.4 515.104 1156.56 514.751 1162.74 530.641C1166.14 524.638 1190.59 538.41 1186.56 525.109C1190.34 527.934 1213.03 517.694 1228.66 530.523C1249.34 535.938 1238.87 549.356 1272.4 536.526C1285.51 548.061 1316.78 535.349 1322.95 534.761C1337.45 538.527 1359.51 542.176 1373.37 531.936C1385.1 531.7 1396.82 518.635 1423.8 530.406C1469.81 518.871 1470.06 553.24 1474.34 532.642C1475.1 526.875 1518.08 550.062 1510.14 541.941C1503.08 538.88 1522.5 536.526 1541.53 557.125C1529.3 572.779 1566.99 545.354 1573.93 570.896C1576.07 583.019 1614.64 553.947 1607.71 574.898C1625.11 563.481 1615.27 569.837 1640.36 570.307C1614.77 578.547 1660.4 580.548 1676.03 565.364C1697.84 552.652 1703.01 567.953 1713.97 564.069C1718.39 572.897 1734.27 561.597 1747 560.067V50.643C1744.73 50.4076 1742.59 50.1721 1740.57 49.819H1739.94Z" fill="white"/>
</g>
<defs>
<filter id="filter0_d_1_96" x="-18" y="0.462524" width="1767" height="600.576" filterUnits="userSpaceOnUse" color-interpolation-filters="sRGB">
<feFlood flood-opacity="0" result="BackgroundImageFix"/>
<feColorMatrix in="SourceAlpha" type="matrix" values="0 0 0 0 0 0 0 0 0 0 0 0 0 0 0 0 0 0 127 0" result="hardAlpha"/>
<feOffset dy="-2"/>
<feGaussianBlur stdDeviation="1"/>
<feComposite in2="hardAlpha" operator="out"/>
<feColorMatrix type="matrix" values="0 0 0 0 0 0 0 0 0 0 0 0 0 0 0 0 0 0 0.25 0"/>
<feBlend mode="normal" in2="BackgroundImageFix" result="effect1_dropShadow_1_96"/>
<feBlend mode="normal" in="SourceGraphic" in2="effect1_dropShadow_1_96" result="shape"/>
</filter>
</defs>
</svg>
