<svg width="20" height="20" viewBox="0 0 20 20" fill="none" xmlns="http://www.w3.org/2000/svg">
<path d="M16.2477 8.12379C16.2477 9.9165 15.6658 11.5725 14.6855 12.9161L19.6301 17.8646C20.1183 18.3528 20.1183 19.1456 19.6301 19.6338C19.1418 20.122 18.349 20.122 17.8608 19.6338L12.9162 14.6853C11.5726 15.6696 9.91664 16.2476 8.12393 16.2476C3.63631 16.2476 0.00012207 12.6114 0.00012207 8.12379C0.00012207 3.63617 3.63631 -1.52588e-05 8.12393 -1.52588e-05C12.6116 -1.52588e-05 16.2477 3.63617 16.2477 8.12379ZM8.12393 13.748C8.86251 13.748 9.59385 13.6025 10.2762 13.3199C10.9586 13.0372 11.5786 12.6229 12.1008 12.1007C12.6231 11.5784 13.0374 10.9584 13.32 10.2761C13.6026 9.59372 13.7481 8.86237 13.7481 8.12379C13.7481 7.38522 13.6026 6.65387 13.32 5.97152C13.0374 5.28916 12.6231 4.66915 12.1008 4.1469C11.5786 3.62465 10.9586 3.21037 10.2762 2.92773C9.59385 2.64509 8.86251 2.49962 8.12393 2.49962C7.38535 2.49962 6.65401 2.64509 5.97165 2.92773C5.2893 3.21037 4.66929 3.62465 4.14704 4.1469C3.62479 4.66915 3.21051 5.28916 2.92787 5.97152C2.64523 6.65387 2.49976 7.38522 2.49976 8.12379C2.49976 8.86237 2.64523 9.59372 2.92787 10.2761C3.21051 10.9584 3.62479 11.5784 4.14704 12.1007C4.66929 12.6229 5.2893 13.0372 5.97165 13.3199C6.65401 13.6025 7.38535 13.748 8.12393 13.748Z" fill="white"/>
</svg>
