<svg width="32" height="34" viewBox="0 0 32 34" fill="none" xmlns="http://www.w3.org/2000/svg">
<path d="M31.5978 33.9687H15.9994C15.7777 33.9687 15.5983 33.7907 15.5983 33.5706V22.5128C15.5983 22.2927 15.7777 22.1147 15.9994 22.1147H20.055V19.1954C20.055 18.9753 20.2344 18.7973 20.4561 18.7973H27.1411C27.3628 18.7973 27.5422 18.9753 27.5422 19.1954V22.1147H31.5978C31.8195 22.1147 31.9989 22.2927 31.9989 22.5128V33.5706C31.9989 33.7907 31.8195 33.9687 31.5978 33.9687ZM16.4005 33.1726H31.1967V27.334H26.4281V28.0417C26.4281 28.2618 26.2487 28.4398 26.0269 28.4398H21.5703C21.3486 28.4398 21.1692 28.2618 21.1692 28.0417V27.334H16.4005V33.1726ZM21.9714 27.6436H25.6247V26.2282H21.9714V27.6436ZM26.4281 26.5378H31.1956V22.9108H16.4005V26.5367H21.1692V25.8301C21.1692 25.6101 21.3486 25.432 21.5703 25.432H26.0269C26.2487 25.432 26.4281 25.6101 26.4281 25.8301V26.5378ZM20.8572 22.1147H26.7389V19.5935H20.8572V22.1147ZM7.4872 33.5706H6.685V25.2772C6.685 21.3052 9.19968 17.8485 12.9087 16.5647C11.4314 15.5618 10.5177 13.8876 10.5177 12.0752C10.5177 9.90345 11.8068 8.02361 13.6664 7.15224C13.8848 6.6082 13.9951 6.03319 13.9951 5.44048C13.9951 2.87947 11.896 0.795062 9.31444 0.795062C6.73291 0.795062 4.63382 2.87837 4.63382 5.44048C4.63382 7.27056 5.72571 8.93699 7.41478 9.68229C7.573 9.75195 7.6677 9.9134 7.65099 10.0837C7.63539 10.2529 7.51172 10.3944 7.34459 10.4331C3.4918 11.3399 0.8022 14.7158 0.8022 18.6425V26.9359H0V18.6425C0 14.6705 2.51468 11.2138 6.22262 9.92999C4.74524 8.92704 3.83274 7.25287 3.83274 5.44048C3.83274 2.44048 6.2917 0 9.31444 0C12.3372 0 14.7961 2.44048 14.7961 5.44048C14.7961 5.90713 14.7382 6.36382 14.6212 6.80834C15.5014 6.58166 16.4964 6.58166 17.3766 6.80834C17.2607 6.36492 17.2016 5.90713 17.2016 5.44048C17.2016 2.44048 19.6617 0 22.6844 0C25.7072 0 28.1673 2.44048 28.1673 5.44048C28.1673 7.25287 27.2536 8.92814 25.7763 9.93109C29.4853 11.216 32 14.676 32 18.6525V19.1954H31.1967V18.6513C31.1967 14.7192 28.5071 11.3399 24.6554 10.4331C24.4883 10.3933 24.3646 10.2529 24.349 10.0837C24.3323 9.9134 24.4281 9.75195 24.5852 9.68339C26.2732 8.93588 27.364 7.27056 27.364 5.44048C27.364 2.87947 25.2649 0.795062 22.6844 0.795062C20.104 0.795062 18.0049 2.87837 18.0049 5.44048C18.0049 6.03319 18.1152 6.6082 18.3336 7.15224C20.1932 8.02471 21.4823 9.90345 21.4823 12.0752C21.4823 13.1113 21.187 14.1187 20.6288 14.9868C20.0472 15.8946 19.2149 16.6067 18.2255 17.0446L17.8991 16.3181C18.7459 15.9444 19.4545 15.3362 19.9525 14.5599C20.4283 13.8179 20.6789 12.9598 20.6789 12.0752C20.6789 9.51421 18.5799 7.4298 15.9994 7.4298C13.419 7.4298 11.3199 9.5131 11.3199 12.0752C11.3199 13.9064 12.4118 15.5717 14.1009 16.317C14.258 16.3867 14.3527 16.5481 14.3371 16.7184C14.3215 16.8876 14.1978 17.0292 14.0307 17.0679C10.1779 17.9746 7.4872 21.3495 7.4872 25.2772V33.5706Z" fill="black"/>
</svg>
