<svg width="31" height="32" viewBox="0 0 31 32" fill="none" xmlns="http://www.w3.org/2000/svg">
<path d="M23.9481 32H23.1892V24.0946C23.1892 20.3506 20.6447 17.1336 16.9998 16.2693C16.8417 16.2314 16.7247 16.0975 16.7099 15.9362C16.6941 15.7739 16.7847 15.62 16.9334 15.5536C18.5324 14.8421 19.5643 13.2547 19.5643 11.5103C19.5643 9.06907 17.5784 7.08218 15.1373 7.08218C12.6961 7.08218 10.7092 9.06802 10.7092 11.5103C10.7092 13.2547 11.7422 14.8432 13.3401 15.5536C13.4887 15.62 13.5794 15.7739 13.5636 15.9362C13.5488 16.0975 13.4318 16.2324 13.2737 16.2693C9.62878 17.1336 7.08429 20.3506 7.08429 24.0946V32H6.32432V24.0946C6.32432 20.3084 8.70332 17.0135 12.2112 15.7897C10.8135 14.8337 9.94921 13.2379 9.94921 11.5092C9.94921 9.43905 11.1687 7.64716 12.928 6.81656C13.1346 6.29902 13.2389 5.75091 13.2389 5.18594C13.2389 2.74475 11.2531 0.757864 8.81188 0.757864C6.3707 0.757864 4.38381 2.7437 4.38381 5.18594C4.38381 6.93145 5.41678 8.51886 7.01472 9.22929C7.1644 9.2957 7.25294 9.44959 7.23818 9.61191C7.22343 9.77318 7.10643 9.9081 6.94832 9.94499C3.3034 10.8093 0.758918 14.0263 0.758918 17.7703V25.6757H0V17.7703C0 13.9841 2.379 10.6892 5.88689 9.4654C4.48921 8.50937 3.62594 6.91354 3.62594 5.18594C3.62594 2.3263 5.95224 0 8.81188 0C11.6715 0 13.9978 2.3263 13.9978 5.18594C13.9978 5.63075 13.943 6.06713 13.8323 6.48981C14.6661 6.27372 15.6063 6.27372 16.439 6.48981C16.3294 6.06713 16.2735 5.63075 16.2735 5.18594C16.2735 2.3263 18.6009 0 21.4605 0C24.3202 0 26.6475 2.3263 26.6475 5.18594C26.6475 6.91459 25.7832 8.51043 24.3855 9.46645C27.8945 10.6902 30.2735 13.9852 30.2735 17.7713V25.6757H29.5135V17.7703C29.5135 14.0263 26.969 10.8093 23.3241 9.94499C23.166 9.90705 23.049 9.77318 23.0342 9.61191C23.0184 9.44959 23.1091 9.2957 23.2577 9.22929C24.8556 8.5178 25.8875 6.9304 25.8875 5.18594C25.8875 2.74475 23.9017 0.757864 21.4605 0.757864C19.0193 0.757864 17.0335 2.7437 17.0335 5.18594C17.0335 5.75091 17.1378 6.29902 17.3444 6.81762C19.1037 7.64926 20.3232 9.4401 20.3232 11.5103C20.3232 13.2389 19.4589 14.8347 18.0612 15.7908C21.5701 17.0145 23.9491 20.3095 23.9491 24.0957L23.9481 32Z" fill="black"/>
</svg>
